%TF.GenerationSoftware,KiCad,Pcbnew,9.0.7*%
%TF.CreationDate,2026-01-20T10:21:11-06:00*%
%TF.ProjectId,SIO_Breakout,53494f5f-4272-4656-916b-6f75742e6b69,rev?*%
%TF.SameCoordinates,Original*%
%TF.FileFunction,Legend,Bot*%
%TF.FilePolarity,Positive*%
%FSLAX46Y46*%
G04 Gerber Fmt 4.6, Leading zero omitted, Abs format (unit mm)*
G04 Created by KiCad (PCBNEW 9.0.7) date 2026-01-20 10:21:11*
%MOMM*%
%LPD*%
G01*
G04 APERTURE LIST*
%ADD10C,0.150000*%
%ADD11C,0.500000*%
%ADD12C,0.120000*%
G04 APERTURE END LIST*
D10*
X129107142Y-122431009D02*
X128964285Y-122478628D01*
X128964285Y-122478628D02*
X128916666Y-122526247D01*
X128916666Y-122526247D02*
X128869047Y-122621485D01*
X128869047Y-122621485D02*
X128869047Y-122764342D01*
X128869047Y-122764342D02*
X128916666Y-122859580D01*
X128916666Y-122859580D02*
X128964285Y-122907200D01*
X128964285Y-122907200D02*
X129059523Y-122954819D01*
X129059523Y-122954819D02*
X129440475Y-122954819D01*
X129440475Y-122954819D02*
X129440475Y-121954819D01*
X129440475Y-121954819D02*
X129107142Y-121954819D01*
X129107142Y-121954819D02*
X129011904Y-122002438D01*
X129011904Y-122002438D02*
X128964285Y-122050057D01*
X128964285Y-122050057D02*
X128916666Y-122145295D01*
X128916666Y-122145295D02*
X128916666Y-122240533D01*
X128916666Y-122240533D02*
X128964285Y-122335771D01*
X128964285Y-122335771D02*
X129011904Y-122383390D01*
X129011904Y-122383390D02*
X129107142Y-122431009D01*
X129107142Y-122431009D02*
X129440475Y-122431009D01*
X128488094Y-122669104D02*
X128011904Y-122669104D01*
X128583332Y-122954819D02*
X128249999Y-121954819D01*
X128249999Y-121954819D02*
X127916666Y-122954819D01*
X127011904Y-122859580D02*
X127059523Y-122907200D01*
X127059523Y-122907200D02*
X127202380Y-122954819D01*
X127202380Y-122954819D02*
X127297618Y-122954819D01*
X127297618Y-122954819D02*
X127440475Y-122907200D01*
X127440475Y-122907200D02*
X127535713Y-122811961D01*
X127535713Y-122811961D02*
X127583332Y-122716723D01*
X127583332Y-122716723D02*
X127630951Y-122526247D01*
X127630951Y-122526247D02*
X127630951Y-122383390D01*
X127630951Y-122383390D02*
X127583332Y-122192914D01*
X127583332Y-122192914D02*
X127535713Y-122097676D01*
X127535713Y-122097676D02*
X127440475Y-122002438D01*
X127440475Y-122002438D02*
X127297618Y-121954819D01*
X127297618Y-121954819D02*
X127202380Y-121954819D01*
X127202380Y-121954819D02*
X127059523Y-122002438D01*
X127059523Y-122002438D02*
X127011904Y-122050057D01*
X126583332Y-122954819D02*
X126583332Y-121954819D01*
X126011904Y-122954819D02*
X126440475Y-122383390D01*
X126011904Y-121954819D02*
X126583332Y-122526247D01*
D11*
X142845237Y-113554000D02*
X142559523Y-113649238D01*
X142559523Y-113649238D02*
X142083332Y-113649238D01*
X142083332Y-113649238D02*
X141892856Y-113554000D01*
X141892856Y-113554000D02*
X141797618Y-113458761D01*
X141797618Y-113458761D02*
X141702380Y-113268285D01*
X141702380Y-113268285D02*
X141702380Y-113077809D01*
X141702380Y-113077809D02*
X141797618Y-112887333D01*
X141797618Y-112887333D02*
X141892856Y-112792095D01*
X141892856Y-112792095D02*
X142083332Y-112696857D01*
X142083332Y-112696857D02*
X142464285Y-112601619D01*
X142464285Y-112601619D02*
X142654761Y-112506380D01*
X142654761Y-112506380D02*
X142749999Y-112411142D01*
X142749999Y-112411142D02*
X142845237Y-112220666D01*
X142845237Y-112220666D02*
X142845237Y-112030190D01*
X142845237Y-112030190D02*
X142749999Y-111839714D01*
X142749999Y-111839714D02*
X142654761Y-111744476D01*
X142654761Y-111744476D02*
X142464285Y-111649238D01*
X142464285Y-111649238D02*
X141988094Y-111649238D01*
X141988094Y-111649238D02*
X141702380Y-111744476D01*
X140845237Y-113649238D02*
X140845237Y-111649238D01*
X139511904Y-111649238D02*
X139130951Y-111649238D01*
X139130951Y-111649238D02*
X138940475Y-111744476D01*
X138940475Y-111744476D02*
X138749999Y-111934952D01*
X138749999Y-111934952D02*
X138654761Y-112315904D01*
X138654761Y-112315904D02*
X138654761Y-112982571D01*
X138654761Y-112982571D02*
X138749999Y-113363523D01*
X138749999Y-113363523D02*
X138940475Y-113554000D01*
X138940475Y-113554000D02*
X139130951Y-113649238D01*
X139130951Y-113649238D02*
X139511904Y-113649238D01*
X139511904Y-113649238D02*
X139702380Y-113554000D01*
X139702380Y-113554000D02*
X139892856Y-113363523D01*
X139892856Y-113363523D02*
X139988094Y-112982571D01*
X139988094Y-112982571D02*
X139988094Y-112315904D01*
X139988094Y-112315904D02*
X139892856Y-111934952D01*
X139892856Y-111934952D02*
X139702380Y-111744476D01*
X139702380Y-111744476D02*
X139511904Y-111649238D01*
D10*
X157374819Y-100666666D02*
X158089104Y-100666666D01*
X158089104Y-100666666D02*
X158231961Y-100619047D01*
X158231961Y-100619047D02*
X158327200Y-100523809D01*
X158327200Y-100523809D02*
X158374819Y-100380952D01*
X158374819Y-100380952D02*
X158374819Y-100285714D01*
X157470057Y-101095238D02*
X157422438Y-101142857D01*
X157422438Y-101142857D02*
X157374819Y-101238095D01*
X157374819Y-101238095D02*
X157374819Y-101476190D01*
X157374819Y-101476190D02*
X157422438Y-101571428D01*
X157422438Y-101571428D02*
X157470057Y-101619047D01*
X157470057Y-101619047D02*
X157565295Y-101666666D01*
X157565295Y-101666666D02*
X157660533Y-101666666D01*
X157660533Y-101666666D02*
X157803390Y-101619047D01*
X157803390Y-101619047D02*
X158374819Y-101047619D01*
X158374819Y-101047619D02*
X158374819Y-101666666D01*
D12*
%TO.C,J1*%
X124750000Y-110500000D02*
X156750000Y-110500000D01*
X124750000Y-124500000D02*
X124750000Y-110500000D01*
X127000000Y-111500000D02*
X155000000Y-111500000D01*
X128000000Y-123000000D02*
X126500000Y-112000000D01*
X141000000Y-123500000D02*
X128500000Y-123500000D01*
X141000000Y-123500000D02*
X153500000Y-123500000D01*
X155500000Y-112000000D02*
X154000000Y-123000000D01*
X156750000Y-110500000D02*
X156750000Y-124500000D01*
X156750000Y-124500000D02*
X124750000Y-124500000D01*
X126500000Y-112000000D02*
G75*
G02*
X127000000Y-111500000I500000J0D01*
G01*
X128500000Y-123500000D02*
G75*
G02*
X128000000Y-123000000I0J500000D01*
G01*
X154000000Y-123000000D02*
G75*
G02*
X153500000Y-123500000I-500001J1D01*
G01*
X155000000Y-111500000D02*
G75*
G02*
X155500000Y-112000000I-1J-500001D01*
G01*
%TO.C,J2*%
X123680000Y-102380000D02*
X123680000Y-99620000D01*
X154270000Y-99620000D02*
X123680000Y-99620000D01*
X154270000Y-102380000D02*
X123680000Y-102380000D01*
X154270000Y-102380000D02*
X154270000Y-99620000D01*
X155540000Y-102380000D02*
X156920000Y-102380000D01*
X156920000Y-102380000D02*
X156920000Y-101000000D01*
%TD*%
M02*
