%TF.GenerationSoftware,KiCad,Pcbnew,9.0.7*%
%TF.CreationDate,2026-01-20T08:57:55-06:00*%
%TF.ProjectId,SIO_Breakout,53494f5f-4272-4656-916b-6f75742e6b69,rev?*%
%TF.SameCoordinates,Original*%
%TF.FileFunction,Copper,L1,Top*%
%TF.FilePolarity,Positive*%
%FSLAX46Y46*%
G04 Gerber Fmt 4.6, Leading zero omitted, Abs format (unit mm)*
G04 Created by KiCad (PCBNEW 9.0.7) date 2026-01-20 08:57:55*
%MOMM*%
%LPD*%
G01*
G04 APERTURE LIST*
%TA.AperFunction,ComponentPad*%
%ADD10R,1.524000X1.524000*%
%TD*%
%TA.AperFunction,ComponentPad*%
%ADD11C,1.524000*%
%TD*%
%TA.AperFunction,ComponentPad*%
%ADD12R,1.700000X1.700000*%
%TD*%
%TA.AperFunction,ComponentPad*%
%ADD13C,1.700000*%
%TD*%
%TA.AperFunction,Conductor*%
%ADD14C,0.200000*%
%TD*%
G04 APERTURE END LIST*
D10*
%TO.P,J1,1,Clock_Input*%
%TO.N,Net-(J1-Clock_Input)*%
X151500000Y-116000000D03*
D11*
%TO.P,J1,2,Clock_Output*%
%TO.N,Net-(J1-Clock_Output)*%
X149750000Y-119000000D03*
%TO.P,J1,3,Data_Input*%
%TO.N,Net-(J1-Data_Input)*%
X148000000Y-116000000D03*
%TO.P,J1,4,Ground*%
%TO.N,Net-(J2-Pin_4)*%
X146250000Y-119000000D03*
%TO.P,J1,5,Data_Output*%
%TO.N,Net-(J1-Data_Output)*%
X144500000Y-116000000D03*
%TO.P,J1,6,Ground*%
%TO.N,Net-(J2-Pin_6)*%
X142750000Y-119000000D03*
%TO.P,J1,7,Command*%
%TO.N,Net-(J1-Command)*%
X141000000Y-116000000D03*
%TO.P,J1,8,Motor_Control*%
%TO.N,Net-(J1-Motor_Control)*%
X139250000Y-119000000D03*
%TO.P,J1,9,Proceed*%
%TO.N,Net-(J1-Proceed)*%
X137500000Y-116000000D03*
%TO.P,J1,10,+5V/Ready*%
%TO.N,Net-(J1-+5V{slash}Ready)*%
X135750000Y-119000000D03*
%TO.P,J1,11,Audio_Input*%
%TO.N,Net-(J1-Audio_Input)*%
X134000000Y-116000000D03*
%TO.P,J1,12,+12V*%
%TO.N,Net-(J1-+12V)*%
X132250000Y-119000000D03*
%TO.P,J1,13,Interrupt*%
%TO.N,Net-(J1-Interrupt)*%
X130500000Y-116000000D03*
%TD*%
D12*
%TO.P,J2,1,Pin_1*%
%TO.N,Net-(J1-Clock_Input)*%
X155540000Y-101000000D03*
D13*
%TO.P,J2,2,Pin_2*%
%TO.N,Net-(J1-Clock_Output)*%
X153000000Y-101000000D03*
%TO.P,J2,3,Pin_3*%
%TO.N,Net-(J1-Data_Input)*%
X150460000Y-101000000D03*
%TO.P,J2,4,Pin_4*%
%TO.N,Net-(J2-Pin_4)*%
X147920000Y-101000000D03*
%TO.P,J2,5,Pin_5*%
%TO.N,Net-(J1-Data_Output)*%
X145380000Y-101000000D03*
%TO.P,J2,6,Pin_6*%
%TO.N,Net-(J2-Pin_6)*%
X142840000Y-101000000D03*
%TO.P,J2,7,Pin_7*%
%TO.N,Net-(J1-Command)*%
X140300000Y-101000000D03*
%TO.P,J2,8,Pin_8*%
%TO.N,Net-(J1-Motor_Control)*%
X137760000Y-101000000D03*
%TO.P,J2,9,Pin_9*%
%TO.N,Net-(J1-Proceed)*%
X135220000Y-101000000D03*
%TO.P,J2,10,Pin_10*%
%TO.N,Net-(J1-+5V{slash}Ready)*%
X132680000Y-101000000D03*
%TO.P,J2,11,Pin_11*%
%TO.N,Net-(J1-Audio_Input)*%
X130140000Y-101000000D03*
%TO.P,J2,12,Pin_12*%
%TO.N,Net-(J1-+12V)*%
X127600000Y-101000000D03*
%TO.P,J2,13,Pin_13*%
%TO.N,Net-(J1-Interrupt)*%
X125060000Y-101000000D03*
%TD*%
D14*
%TO.N,Net-(J1-+12V)*%
X132250000Y-105650000D02*
X132250000Y-119000000D01*
X127600000Y-101000000D02*
X132250000Y-105650000D01*
%TO.N,Net-(J1-Clock_Input)*%
X155540000Y-111960000D02*
X151500000Y-116000000D01*
X155540000Y-101000000D02*
X155540000Y-111960000D01*
%TO.N,Net-(J1-Motor_Control)*%
X139250000Y-102490000D02*
X139250000Y-119000000D01*
X137760000Y-101000000D02*
X139250000Y-102490000D01*
%TO.N,Net-(J1-+5V{slash}Ready)*%
X135750000Y-104070000D02*
X135750000Y-119000000D01*
X132680000Y-101000000D02*
X135750000Y-104070000D01*
%TO.N,Net-(J2-Pin_4)*%
X146250000Y-102670000D02*
X146250000Y-119000000D01*
X147920000Y-101000000D02*
X146250000Y-102670000D01*
%TO.N,Net-(J1-Proceed)*%
X137500000Y-103280000D02*
X137500000Y-116000000D01*
X135220000Y-101000000D02*
X137500000Y-103280000D01*
%TO.N,Net-(J1-Data_Output)*%
X145380000Y-101000000D02*
X144500000Y-101880000D01*
X144500000Y-101880000D02*
X144500000Y-116000000D01*
%TO.N,Net-(J2-Pin_6)*%
X142840000Y-118910000D02*
X142750000Y-119000000D01*
X142840000Y-101000000D02*
X142840000Y-118910000D01*
%TO.N,Net-(J1-Data_Input)*%
X148000000Y-103460000D02*
X148000000Y-116000000D01*
X150460000Y-101000000D02*
X148000000Y-103460000D01*
%TO.N,Net-(J1-Command)*%
X140300000Y-115300000D02*
X141000000Y-116000000D01*
X140300000Y-101000000D02*
X140300000Y-115300000D01*
%TO.N,Net-(J1-Clock_Output)*%
X153000000Y-101000000D02*
X149750000Y-104250000D01*
X149750000Y-104250000D02*
X149750000Y-119000000D01*
%TO.N,Net-(J1-Interrupt)*%
X130500000Y-106440000D02*
X130500000Y-116000000D01*
X125060000Y-101000000D02*
X130500000Y-106440000D01*
%TO.N,Net-(J1-Audio_Input)*%
X130140000Y-101000000D02*
X134000000Y-104860000D01*
X134000000Y-104860000D02*
X134000000Y-116000000D01*
%TD*%
M02*
