M48
; DRILL file {KiCad 9.0.7} date 2026-02-06T11:43:11-0600
; FORMAT={-:-/ absolute / metric / decimal}
; #@! TF.CreationDate,2026-02-06T11:43:11-06:00
; #@! TF.GenerationSoftware,Kicad,Pcbnew,9.0.7
; #@! TF.FileFunction,Plated,1,2,PTH
FMAT,2
METRIC
; #@! TA.AperFunction,Plated,PTH,ComponentDrill
T1C1.000
; #@! TA.AperFunction,Plated,PTH,ComponentDrill
T2C1.200
%
G90
G05
T1
X125.06Y-101.0
X127.6Y-101.0
X130.14Y-101.0
X132.68Y-101.0
X135.22Y-101.0
X137.76Y-101.0
X140.3Y-101.0
X142.84Y-101.0
X145.38Y-101.0
X147.92Y-101.0
X150.46Y-101.0
X153.0Y-101.0
X155.54Y-101.0
T2
X130.5Y-116.0
X132.25Y-119.0
X134.0Y-116.0
X135.75Y-119.0
X137.5Y-116.0
X139.25Y-119.0
X141.0Y-116.0
X142.75Y-119.0
X144.5Y-116.0
X146.25Y-119.0
X148.0Y-116.0
X149.75Y-119.0
X151.5Y-116.0
M30
